# xmcd
# 
# Track frame offsets:
#     150
#     17010
#     30392
#     47499
#     62302
#     74788
#     87851
#     104121
#     123689
#     140753
#     155377
#     166544
#     178217
#     193554
# 
# Disc length: 2735
# 
# Revision: 0
# Processed by: cddbd v1.5.2PL0 Copyright (c) Steve Scherf et al.
# Submitted via: fre:ac v1.0.31
# 
DISCID=be0aad0e
DTITLE=Glen Campbell - Old Town Home Disc 1
DYEAR=0
DGENRE=Country
TTITLE0=Old Town Home
TTITLE1=(Love Always) Letter To Home
TTITLE2=An American Trilogy
TTITLE3=Faithless Love
TTITLE4=Cowpoke
TTITLE5=Leavin' Eyes
TTITLE6=On The Wings Of My Victory
TTITLE7=Mull Of Kintyre
TTITLE8=Sweet Sixteen
TTITLE9=Gene Autry, My Hero
TTITLE10=It's Just A Matter Of Time
TTITLE11=I'll Be Faithful To You
TTITLE12=Wild Winds
TTITLE13=I Love How You Love Me
EXTD=
EXTT0=
EXTT1=
EXTT2=
EXTT3=
EXTT4=
EXTT5=
EXTT6=
EXTT7=
EXTT8=
EXTT9=
EXTT10=
EXTT11=
EXTT12=
EXTT13=
PLAYORDER=
